{"title":"L.Horloger.De.Saint.Paul.1974.TRUEFRENCH.DVDRiP.XViD.AC3-beleze","uid":9413749,"size":1465804402,"categoryP":"video","categoryS":"movies","magnet":"?xt=urn:btih:f3cc81039cb91f851d5a7675bd3ea2be8f3df1cb&amp;dn=L.Horloger.De.Saint.Paul.1974.TRUEFRENCH.DVDRiP.XViD.AC3-beleze&amp;tr=udp%3A%2F%2Ftracker.openbittorrent.com%3A80&amp;tr=udp%3A%2F%2Fopen.demonii.com%3A1337&amp;tr=udp%3A%2F%2Ftracker.coppersurfer.tk%3A6969&amp;tr=udp%3A%2F%2Fexodus.desync.com%3A6969","seeders":0,"leechers":1,"uploader":"rpessoa","files":3,"time":1388378310,"description":"A Watchmaker finds out one day that his son has become a murderer. He tries to understand for whom and why.\n &lt;a href=&quot;\nhttp://www.imdb.com/title/tt0071622/&quot; rel=&quot;nofollow&quot; target=&quot;_NEW&quot;&gt;\nhttp://www.imdb.com/title/tt0071622/&lt;/a&gt;\n\nGeneral\nComplete name                    : L.Horloger.De.Saint.Paul.1974.TRUEFRENCH.DVDRiP.XViD.AC3-beleze.avi\nFormat                           : AVI\nFormat/Info                      : Audio Video Interleave\nFile size                        : 1.36 GiB\nDuration                         : 1h 40mn\nOverall bit rate                 : 1 940 Kbps\nWriting application              : VirtualDubMod 1.5.10.2 (build 2542/release)\nWriting library                  : VirtualDubMod build 2542/release\n\nVideo\nID                               : 0\nFormat                           : MPEG-4 Visual\nFormat profile                   : Advanced Simple@L5\nFormat settings, BVOP            : 1\nFormat settings, QPel            : No\nFormat settings, GMC             : No warppoints\nFormat settings, Matrix          : Default (H.263)\nMuxing mode                      : Packed bitstream\nCodec ID                         : XVID\nCodec ID/Hint                    : XviD\nDuration                         : 1h 40mn\nBit rate                         : 1 740 Kbps\nWidth                            : 640 pixels\nHeight                           : 384 pixels\nDisplay aspect ratio             : 1.667\nFrame rate                       : 25.000 fps\nColor space                      : YUV\nChroma subsampling               : 4:2:0\nBit depth                        : 8 bits\nScan type                        : Progressive\nCompression mode                 : Lossy\nBits/(Pixel*Frame)               : 0.283\nStream size                      : 1.22 GiB (90%)\nWriting library                  : XviD 64\n\nAudio\nID                               : 1\nFormat                           : AC-3\nFormat/Info                      : Audio Coding 3\nMode extension                   : CM (complete main)\nCodec ID                         : 2000\nDuration                         : 1h 40mn\nBit rate mode                    : Constant\nBit rate                         : 192 Kbps\nChannel(s)                       : 2 channels\nChannel positions                : Front: L R\nSampling rate                    : 48.0 KHz\nBit depth                        : 16 bits\nCompression mode                 : Lossy\nStream size                      : 138 MiB (10%)\nAlignment                        : Split accross interleaves\nInterleave, duration             : 64 ms (1.60 video frames)\nInterleave, preload duration     : 500 ms\n\n\nNot my rip. Thanks to the original uploader.","torrent":{"xt":"urn:btih:f3cc81039cb91f851d5a7675bd3ea2be8f3df1cb","amp;dn":"L.Horloger.De.Saint.Paul.1974.TRUEFRENCH.DVDRiP.XViD.AC3-beleze","amp;tr":["udp%3A%2F%2Ftracker.openbittorrent.com%3A80","udp%3A%2F%2Fopen.demonii.com%3A1337","udp%3A%2F%2Ftracker.coppersurfer.tk%3A6969","udp%3A%2F%2Fexodus.desync.com%3A6969"],"infoHash":"f3cc81039cb91f851d5a7675bd3ea2be8f3df1cb","infoHashBuffer":{"type":"Buffer","data":[243,204,129,3,156,185,31,133,29,90,118,117,189,62,162,190,143,61,241,203]},"announce":[],"urlList":[]}}